<?xml version="1.0" standalone="no"?>
<!DOCTYPE svg PUBLIC "-//W3C//DTD SVG 20010904//EN"
 "http://www.w3.org/TR/2001/REC-SVG-20010904/DTD/svg10.dtd">
<svg version="1.0" xmlns="http://www.w3.org/2000/svg"
 width="260.000000pt" height="260.000000pt" viewBox="0 0 260.000000 260.000000"
 preserveAspectRatio="xMidYMid meet">
<metadata>
Created by potrace 1.11, written by Peter Selinger 2001-2013
</metadata>
<g transform="translate(0.000000,260.000000) scale(0.100000,-0.100000)"
fill="#000000" stroke="none">
<path d="M989 2571 c-515 -131 -825 -441 -955 -958 -32 -128 -34 -143 -34
-314 0 -144 4 -198 21 -276 115 -530 428 -858 952 -998 85 -23 109 -25 325
-25 201 0 245 3 312 20 529 135 840 446 966 965 21 90 24 122 24 311 0 201 -2
218 -29 327 -66 263 -164 444 -328 610 -148 150 -350 261 -594 328 -108 30
-124 32 -329 35 -210 4 -218 3 -331 -25z"/>
</g>
</svg>
